<svg xmlns="http://www.w3.org/2000/svg" width="27.323" height="23.851" viewBox="0 0 27.323 23.851">
  <g id="layer1" transform="translate(-312.542 -452.351)">
    <g id="g80302" transform="translate(312.542 470.139)">
      <path id="path825" d="M-166.078,895.86a1.954,1.954,0,0,0-1.905,2.071,1.94,1.94,0,0,0,1.905,2.056,1.531,1.531,0,0,0,1.26-.586v.255a.269.269,0,0,0,.255.255h.63v-3.961h-.885v.5a1.529,1.529,0,0,0-1.26-.593Zm.158.81a1.212,1.212,0,0,1,1.179,1.26,1.222,1.222,0,0,1-1.178,1.26,1.2,1.2,0,0,1-1.164-1.268A1.181,1.181,0,0,1-165.921,896.67Z" transform="translate(167.984 -893.924)"/>
      <path id="path829" d="M-73.84,899.886a.248.248,0,0,1-.255-.255v-3.706h.885v.49a1.382,1.382,0,0,1,1.194-.581,1.479,1.479,0,0,1,1.506,1.516v2.535h-.615a.271.271,0,0,1-.27-.27v-2.071a.84.84,0,0,0-.825-.9,1.071,1.071,0,0,0-.991,1.14v2.1h-.629Z" transform="translate(79.121 -893.9)"/>
      <path id="path833" d="M7.428,862.421a2.07,2.07,0,0,0,0,4.127,1.531,1.531,0,0,0,1.26-.586v.255a.269.269,0,0,0,.255.255h.63V860.53H8.688v2.483a1.534,1.534,0,0,0-1.26-.592Zm.158.81a1.263,1.263,0,0,1,0,2.521,1.2,1.2,0,0,1-1.164-1.268A1.181,1.181,0,0,1,7.586,863.231Z" transform="translate(3.765 -860.486)"/>
      <path id="path835" d="M99.666,900.712a.248.248,0,0,1-.255-.255V896.75h.885v.661a1.09,1.09,0,0,1,1.065-.705,1.878,1.878,0,0,1,.315.03v.915a1.276,1.276,0,0,0-.42-.075,1.047,1.047,0,0,0-.96,1.139v2Z" transform="translate(-85.098 -894.725)"/>
      <path id="path837" d="M237.578,901.5a.248.248,0,0,1-.255-.255v-3.706h.885V901.5Z" transform="translate(-215.627 -895.513)"/>
      <path id="path839" d="M268.666,862.421a2.07,2.07,0,0,0,0,4.127,1.531,1.531,0,0,0,1.26-.586v.255a.269.269,0,0,0,.255.255h.63V860.53h-.885v2.483a1.531,1.531,0,0,0-1.26-.592Zm.158.81a1.263,1.263,0,0,1,0,2.521,1.2,1.2,0,0,1-1.164-1.268A1.181,1.181,0,0,1,268.823,863.231Z" transform="translate(-243.489 -860.486)"/>
      <circle id="path841" cx="0.586" cy="0.586" r="0.586" transform="translate(21.546 0)"/>
      <path id="path843" d="M148.843,895.821a2.04,2.04,0,0,0-2.065,2.065,2.016,2.016,0,0,0,2.063,2.063,2.064,2.064,0,1,0,0-4.128Zm0,.827a1.2,1.2,0,0,1,1.188,1.241,1.187,1.187,0,1,1-2.371.011,1.192,1.192,0,0,1,1.183-1.252Z" transform="translate(-129.929 -893.887)"/>
    </g>
    <path id="path80319" d="M333.154,456.964l2.265-3.924a.46.46,0,0,0-.166-.627.454.454,0,0,0-.624.166l-2.295,3.974a14.318,14.318,0,0,0-11.682,0l-2.295-3.974a.459.459,0,1,0-.794.461l2.265,3.924a13.525,13.525,0,0,0-6.987,10.7h27.3A13.521,13.521,0,0,0,333.154,456.964Zm-12.93,6.863a1.144,1.144,0,1,1,1.144-1.144A1.145,1.145,0,0,1,320.224,463.828Zm12.535,0a1.144,1.144,0,1,1,1.144-1.144A1.145,1.145,0,0,1,332.759,463.828Z" transform="translate(-0.282 0)" fill="#32de84"/>
  </g>
</svg>
