<svg xmlns="http://www.w3.org/2000/svg" width="20.965" height="25.75" viewBox="0 0 20.965 25.75">
  <path id="apple-icon" d="M76.971,13.657a5.825,5.825,0,0,1,2.779-4.9A6.012,6.012,0,0,0,75.041,6.2C73.036,6,71.129,7.386,70.11,7.386s-2.586-1.151-4.249-1.12a6.3,6.3,0,0,0-5.327,3.228c-2.271,3.939-.581,9.778,1.632,12.972,1.081,1.564,2.37,3.322,4.063,3.259,1.63-.064,2.247-1.056,4.218-1.056s2.525,1.056,4.25,1.022c1.754-.032,2.866-1.595,3.94-3.164a14.2,14.2,0,0,0,1.783-3.661,5.686,5.686,0,0,1-3.455-5.208h0ZM73.73,4.088A5.673,5.673,0,0,0,75.069-.024a5.773,5.773,0,0,0-3.792,1.951A5.4,5.4,0,0,0,69.91,5.911,4.774,4.774,0,0,0,73.729,4.09v0Z" transform="translate(-59.457 0.024)" fill-rule="evenodd"/>
</svg>
