<svg xmlns="http://www.w3.org/2000/svg" width="46" height="45" viewBox="0 0 46 45">
  <g id="Group_38001" data-name="Group 38001" transform="translate(-92 -2889)">
    <ellipse id="Ellipse_39" data-name="Ellipse 39" cx="23" cy="22.5" rx="23" ry="22.5" transform="translate(92 2889)" fill="#fff"/>
    <g id="Layer_1-2" transform="translate(101.5 2898.003)">
      <g id="Group_37985" data-name="Group 37985" transform="translate(0 0)">
        <path id="Path_34" data-name="Path 34" d="M27,13.5a13.657,13.657,0,0,0-.425-3.37q-.106-.406-.237-.8c-.121-.367-.25-.729-.4-1.083-.171-.4-.362-.8-.571-1.179-.171-.312-.358-.616-.55-.916-.162-.246-.325-.492-.5-.725q-.387-.519-.825-1A13.472,13.472,0,0,0,13.5,0h0c-.262,0-.525.008-.783.025h-.037a13.5,13.5,0,0,0,0,26.95h.037c.258.017.521.025.783.025h0a13.456,13.456,0,0,0,9.989-4.428q.437-.481.825-1a14.09,14.09,0,0,0,1.054-1.641c.208-.383.4-.775.571-1.179a13.271,13.271,0,0,0,.991-3.87A13.7,13.7,0,0,0,27,13.5h0Zm-25.871,0A12.382,12.382,0,0,1,13.5,1.133a12.253,12.253,0,0,1,3.07.387,13.49,13.49,0,0,1,0,23.968A12.37,12.37,0,0,1,1.125,13.5Z" transform="translate(0 0)" fill="#ff4053"/>
        <circle id="Ellipse_53" data-name="Ellipse 53" cx="0.758" cy="0.758" r="0.758" transform="translate(4.253 17.778)" fill="#ff4053"/>
        <circle id="Ellipse_54" data-name="Ellipse 54" cx="0.308" cy="0.308" r="0.308" transform="translate(8.368 19.931)" fill="#ff4053"/>
        <circle id="Ellipse_55" data-name="Ellipse 55" cx="0.666" cy="0.666" r="0.666" transform="translate(6.115 20.548)" fill="#ff4053"/>
        <circle id="Ellipse_56" data-name="Ellipse 56" cx="2.004" cy="2.004" r="2.004" transform="translate(13.5 6.694)" fill="#ff4053"/>
        <circle id="Ellipse_57" data-name="Ellipse 57" cx="0.696" cy="0.696" r="0.696" transform="translate(17.095 11.313)" fill="#ff4053"/>
        <circle id="Ellipse_58" data-name="Ellipse 58" cx="0.504" cy="0.504" r="0.504" transform="translate(20.66 8.764)" fill="#ff4053"/>
      </g>
    </g>
  </g>
</svg>
