<svg xmlns="http://www.w3.org/2000/svg" width="150" height="150" viewBox="0 0 150 150">
  <g id="Group_38094" data-name="Group 38094" transform="translate(-142 -1542)">
    <rect id="Placeholder_image" data-name="Placeholder image" width="150" height="150" rx="75" transform="translate(142 1542)" fill="#f6e4e4"/>
    <path id="Icon_material-group" data-name="Icon material-group" d="M49.227,26.591a9.545,9.545,0,1,0-9.545-9.545A9.506,9.506,0,0,0,49.227,26.591Zm-25.455,0a9.545,9.545,0,1,0-9.545-9.545A9.506,9.506,0,0,0,23.773,26.591Zm0,6.364C16.359,32.955,1.5,36.677,1.5,44.091v7.955H46.045V44.091C46.045,36.677,31.186,32.955,23.773,32.955Zm25.455,0c-.923,0-1.973.064-3.086.159,3.691,2.673,6.268,6.268,6.268,10.977v7.955H71.5V44.091C71.5,36.677,56.641,32.955,49.227,32.955Z" transform="translate(181 1587)" fill="none" stroke="#1c5c2e" stroke-width="3"/>
  </g>
</svg>
