<svg xmlns="http://www.w3.org/2000/svg" width="150" height="150" viewBox="0 0 150 150">
  <g id="Group_38097" data-name="Group 38097" transform="translate(-1134 -1542)">
    <rect id="Placeholder_image_Copy_3" data-name="Placeholder image Copy 3" width="150" height="150" rx="75" transform="translate(1134 1542)" fill="#f6e4e4"/>
    <path id="Icon_awesome-mask" data-name="Icon awesome-mask" d="M40.084,4.5c-55.325,0-44.7,48-19.808,48a15.406,15.406,0,0,0,12.678-6.983l3.216-4.724a4.632,4.632,0,0,1,7.829,0l3.216,4.724A15.4,15.4,0,0,0,59.891,52.5C83.624,52.5,96.22,4.5,40.084,4.5ZM23,35.045a12.944,12.944,0,0,1-10.01-5.131,2.285,2.285,0,0,1,0-2.829A12.938,12.938,0,0,1,23,21.954a12.942,12.942,0,0,1,10.01,5.131,2.285,2.285,0,0,1,0,2.829A12.94,12.94,0,0,1,23,35.045Zm34,0a12.944,12.944,0,0,1-10.01-5.131,2.285,2.285,0,0,1,0-2.829A12.938,12.938,0,0,1,57,21.954a12.942,12.942,0,0,1,10.01,5.131,2.285,2.285,0,0,1,0,2.829A12.94,12.94,0,0,1,57,35.045Z" transform="translate(1169.5 1589)" fill="none" stroke="#1c5c2e" stroke-width="3"/>
  </g>
</svg>
