<svg xmlns="http://www.w3.org/2000/svg" width="150" height="150" viewBox="0 0 150 150">
  <g id="Group_38096" data-name="Group 38096" transform="translate(-802 -1542)">
    <rect id="Placeholder_image_Copy_2" data-name="Placeholder image Copy 2" width="150" height="150" rx="75" transform="translate(802 1542)" fill="#f6e4e4"/>
    <path id="Icon_ionic-md-flame" data-name="Icon ionic-md-flame" d="M62.476,36.032l-.037,1.949c-.15,2.193-1.481,8.135-4.142,10.253a26.213,26.213,0,0,0,1.912-15.5C56.534,14.457,42.645,6.7,24.932,3.773l-3.224-.412c7.4,8.847,10.515,15.314,9.316,21.893-.431,2.362-1.874,4.386-2.624,5.923a28.8,28.8,0,0,0,.375-5.38c-.056-2.662-1.237-5.811-3.374-7.423a12.328,12.328,0,0,1-1.706,8.941C19.065,35.226,7.687,38.15,6.75,52.771v.712c0,10.066,4.8,18.557,12.877,23.43a16.244,16.244,0,0,1-1.068-11.284c.75,4.442,2.624,6.748,4.667,9.709a13.11,13.11,0,0,0,6.2,4.667,24.746,24.746,0,0,0,8.978,1.35c10.459,0,17.132-3.393,22.324-9.466S66.75,59.144,66.75,51.946A27.937,27.937,0,0,0,62.476,36.032Z" transform="translate(843.75 1574.642)" fill="none" stroke="#1c5c2e" stroke-width="3"/>
  </g>
</svg>
