<svg xmlns="http://www.w3.org/2000/svg" width="320" height="325.271" viewBox="0 0 320 325.271">
  <g id="Group_38133" data-name="Group 38133" transform="translate(491.012 645.691)" opacity="0.25">
    <path id="Path_71" data-name="Path 71" d="M-375.7-568c8.059-.1,6.562-5.159,4.805-10.158-8.51-24.219-23.558-43.351-45.6-56.544a121.484,121.484,0,0,0-23.4-10.378c-5.575-1.887-9.352.6-7.156,7.277,11.276,34.277,34.331,57.035,68.17,69.151A24.018,24.018,0,0,0-375.7-568Z" transform="translate(37.376 0)" fill="#d10f96"/>
    <path id="Path_72" data-name="Path 72" d="M-327.308-640.453a7.784,7.784,0,0,0-10.7-4.206c-7.756,3.673-14.334,6.625-20.445,10.343-21.673,13.185-36.482,32.118-44.642,56.108-.861,2.527-1.447,6.562-.106,8.035,1.429,1.572,5.651,1.948,8.046,1.11,33.982-11.894,56.979-34.856,68.03-69.187A3.475,3.475,0,0,0-327.308-640.453Z" transform="translate(75.058 0.225)" fill="#ff5459"/>
    <path id="Path_73" data-name="Path 73" d="M-355.233-556.924c2.047.618,4.3,1.153,6.452,1.973q46.551,17.763,64.092,64.366c1.16,3.09.577,6.834.8,10.274-3.682-.1-7.722.76-10.991-.451-31.529-11.686-53.025-33.528-64.51-65.082C-362.2-553.588-360.774-556.956-355.233-556.924Z" transform="translate(112.321 76.567)" fill="#ff5459"/>
    <path id="Path_74" data-name="Path 74" d="M-444.646-557.307c3.215.954,3.835,1.194,4.479,1.323,27.983,5.6,65.044,42.528,69.982,69.717,1.108,6.1-.959,8.78-7.46,7.51-27.529-5.387-64.225-41.973-69.593-69.995C-447.736-551.362-445.561-554.482-444.646-557.307Z" transform="translate(37.695 76.236)" fill="#ff5459"/>
    <path id="Path_75" data-name="Path 75" d="M-369.966-595.252c-.769,2.466-1.4,5.027-2.354,7.458-12,30.464-33.26,51.634-64.039,62.992-3.086,1.138-6.81.559-10.238.777-.019-3.368-1-7.083.089-10.045q17.514-47.736,65.437-65.372C-376.61-601.077-371.224-603.526-369.966-595.252Z" transform="translate(37.946 38.469)" fill="#ff5459"/>
    <path id="Path_76" data-name="Path 76" d="M-395.506-600.781c4.548,1.995,10.438,4.178,15.96,7.065,25.39,13.276,42.906,33.467,52.194,60.582.868,2.537,1.5,6.5.173,8.065-1.291,1.533-5.552,1.81-7.942.989-34.064-11.7-56.782-34.8-68.468-68.8C-405.819-599.368-402.967-601.407-395.506-600.781Z" transform="translate(74.771 38.644)" fill="#ff5459"/>
    <path id="Path_77" data-name="Path 77" d="M-351.533-524.288a6.741,6.741,0,0,1-8.786-4.98,4.241,4.241,0,0,1,.1-2.559c4.427-10.19,8.892-20.6,15.122-29.721,12.8-18.743,30.669-31.436,52.276-38.566,2.507-.827,6.6-.983,8.108.467,1.445,1.386,1.322,5.565.46,8.017-11.647,33.1-34.159,55.517-67.24,67.33Z" transform="translate(112.604 38.773)" fill="#ff5459"/>
    <path id="Path_78" data-name="Path 78" d="M-412.711-549.242c-4.64,9.039-8.594,18.518-14.057,27.029-12.893,20.088-31.062,33.914-53.644,41.723-2.844.983-6.225.421-9.356.576-.142-3.114-1.255-6.577-.278-9.289,11.794-32.692,33.988-55.158,67.028-66.512C-415.563-558.276-413.151-556.447-412.711-549.242Z" transform="translate(0.491 76.663)" fill="#ff5459"/>
    <path id="Path_79" data-name="Path 79" d="M-375.7-512.766c8.059.1,6.562,5.159,4.805,10.157-8.51,24.219-23.558,43.351-45.6,56.544a121.245,121.245,0,0,1-23.4,10.378c-5.575,1.887-9.352-.6-7.156-7.277,11.276-34.277,34.331-57.035,68.17-69.149A24.018,24.018,0,0,1-375.7-512.766Z" transform="translate(37.376 114.655)" fill="#ff5459"/>
    <path id="Path_80" data-name="Path 80" d="M-327.308-440.725a7.786,7.786,0,0,1-10.7,4.208c-7.756-3.673-14.334-6.625-20.445-10.345-21.673-13.185-36.482-32.116-44.642-56.106-.861-2.527-1.447-6.564-.106-8.037,1.429-1.572,5.651-1.946,8.046-1.108,33.982,11.892,56.979,34.854,68.03,69.185A3.475,3.475,0,0,1-327.308-440.725Z" transform="translate(75.058 114.843)" fill="#ff5459"/>
    <path id="Path_81" data-name="Path 81" d="M-413.129-528.511c-.373,7.618-5.409,5.783-9.818,4.3-19.559-6.6-36.433-17.6-48.589-34.185-7.484-10.209-13.118-21.954-18.337-33.569-3.153-7.018.51-10.717,7.607-8.288,34.007,11.646,56.992,34.517,68.578,68.622A21.807,21.807,0,0,1-413.129-528.511Z" transform="translate(0 38.548)" fill="#ff5459"/>
    <path id="Path_82" data-name="Path 82" d="M-331.6-556.783c6.376.5,5.947,4.383,4.17,9.521-9.248,26.724-26.381,46.771-51.159,60.222a98.694,98.694,0,0,1-18.2,7.543c-5.148,1.57-8.333-.395-7.135-6.688,5.237-27.512,41.874-64.3,69.751-69.9C-333.529-556.213-332.9-556.425-331.6-556.783Z" transform="translate(74.901 76.688)" fill="#d10f96"/>
  </g>
</svg>
