<svg xmlns="http://www.w3.org/2000/svg" width="45" height="45" viewBox="0 0 45 45">
  <g id="Group_38039" data-name="Group 38039" transform="translate(-513 -127)">
    <circle id="Ellipse_61" data-name="Ellipse 61" cx="22.5" cy="22.5" r="22.5" transform="translate(513 127)" fill="#ff4053"/>
    <g id="Layer_1-2" transform="translate(526.125 133.998)">
      <g id="Group_38038" data-name="Group 38038" transform="translate(0.009 0.002)">
        <path id="Path_60" data-name="Path 60" d="M19.281,56.434H1.792a.382.382,0,1,1,0-.764H19.281a.382.382,0,1,1,0,.764Z" transform="translate(-0.932 -36.678)" fill="#fff"/>
        <path id="Path_61" data-name="Path 61" d="M17.771,65.425a1.432,1.432,0,0,0-.171-.058,5.021,5.021,0,0,1-1.634-.9,3.947,3.947,0,0,1-.778-.89c-.02-.034-.034-.068-.061-.116a1.024,1.024,0,0,1,.191.02,1.332,1.332,0,0,0,.42,0,2.458,2.458,0,0,0,.662-.191,6.292,6.292,0,0,0,1.044-.594c.024-.017.048-.038.072-.058a.439.439,0,0,0-.317-.754.5.5,0,0,0-.266.092c-.188.116-.372.235-.566.341a2.906,2.906,0,0,1-.426.181,1.116,1.116,0,0,1-.607.051A1.369,1.369,0,0,1,15,62.436c-.15-.072-.3-.15-.44-.229a5.463,5.463,0,0,0-1.7-.587,2.835,2.835,0,0,0-.914-.017,2.454,2.454,0,0,0-.266.055.133.133,0,0,1-.15-.038c-.068-.075-.14-.143-.2-.218a1.42,1.42,0,0,1-.287-.539.3.3,0,0,1,0-.078c.058.024.106.041.15.061a1.989,1.989,0,0,0,1.044.147c.051-.007.1-.017.147-.027a.442.442,0,0,0,.321-.481.435.435,0,0,0-.433-.386,1.325,1.325,0,0,0-.164.014,1.146,1.146,0,0,1-.774-.177c-.014-.007-.02-.02-.038-.041l.092-.133,1.02-1.4a1.024,1.024,0,0,0,.085-.126.446.446,0,0,0-.13-.566.439.439,0,0,0-.307-.082c-.1.048-.194.1-.29.157-.024.031-.051.061-.072.092l-.942,1.29a.44.44,0,0,1-.113.13.7.7,0,0,1-.068-.078,6.565,6.565,0,0,1-.734-1.4.217.217,0,0,1-.01-.147c.038-.126.072-.249.109-.375a.473.473,0,0,1,.041-.085h.488v-.014a.859.859,0,0,1-.556-.372.859.859,0,0,1-.249.092c-.324.065-.645.113-.969.15a.708.708,0,0,1-.01.147h.249c.027,0,.055.01.085.014a.373.373,0,0,1,0,.068A8.385,8.385,0,0,1,8.6,58.5a2.793,2.793,0,0,1-.44.7,1.9,1.9,0,0,1-1.146.638,3.079,3.079,0,0,1-1.061-.02,6,6,0,0,1-1.191-.362c-.051-.02-.1-.044-.154-.061a.442.442,0,0,0-.338.815l.068.031a8.707,8.707,0,0,0,.962.341,4.552,4.552,0,0,0,1.842.181c.017,0,.041-.007.048.02a.037.037,0,0,1-.007.027c-.027.027-.055.058-.085.085a2.271,2.271,0,0,1-.577.351,3.982,3.982,0,0,1-.836.246c-.171.034-.345.061-.515.109a3.079,3.079,0,0,0-1.327.795,4.81,4.81,0,0,0-.638.778c-.034.051-.068.1-.1.15-.058.01-.109.02-.164.027a5.767,5.767,0,0,0-.867.188,3.62,3.62,0,0,0-.822.365A2.469,2.469,0,0,0,.19,65.278a.56.56,0,0,1-.089.167.423.423,0,0,0-.048.454.415.415,0,0,0,.365.252.421.421,0,0,0,.331-.113.739.739,0,0,0,.194-.283c.048-.109.092-.222.136-.334a1.648,1.648,0,0,1,.693-.792,2.837,2.837,0,0,1,.706-.293.58.58,0,0,1,.1-.007c-.024.068-.041.116-.061.164a10.2,10.2,0,0,0-.529,1.784,1.871,1.871,0,0,0-.034.191.443.443,0,0,0,.341.481.434.434,0,0,0,.519-.3c.01-.034.017-.068.024-.1a9.369,9.369,0,0,1,.474-1.692,6.23,6.23,0,0,1,.662-1.279,3.24,3.24,0,0,1,.669-.73,2.3,2.3,0,0,1,.512-.31A1.022,1.022,0,0,1,5.26,62.5c.007.014.01.017.01.024V62.6a4.151,4.151,0,0,0,.068,1.392,4.761,4.761,0,0,0,.805,1.75c.017.024.038.048.058.072a.441.441,0,0,0,.71-.512.807.807,0,0,0-.075-.113,4.552,4.552,0,0,1-.331-.553,3.259,3.259,0,0,1-.348-1.952,1.56,1.56,0,0,1,.1-.409c.048-.014.1-.027.143-.044.16-.058.324-.109.481-.174a2.915,2.915,0,0,0,.747-.447,2.2,2.2,0,0,0,.795-1.31.283.283,0,0,1,.02-.072.061.061,0,0,1,.075-.044c.007.024.017.051.024.082.014.089.024.177.038.27.048.341.1.686.143,1.027a.477.477,0,0,0,.184.317,2.989,2.989,0,0,1,.266.242,1.33,1.33,0,0,1,.287.437.838.838,0,0,1-.078.805,1.576,1.576,0,0,1-.181.218,2.4,2.4,0,0,1-.386.31,5.153,5.153,0,0,1-.686.379,1,1,0,0,0-.147.078.439.439,0,0,0-.143.56.446.446,0,0,0,.536.222c.044-.014.085-.034.126-.051a6.216,6.216,0,0,0,.74-.4c.031-.02.061-.055.113-.038a.933.933,0,0,1,.027.293,1.661,1.661,0,0,1-.123.525,3.186,3.186,0,0,1-.454.761,1.1,1.1,0,0,0-.092.119.441.441,0,0,0,.539.645.464.464,0,0,0,.191-.143c.106-.143.218-.287.317-.44a3.249,3.249,0,0,0,.461-1.071,1.893,1.893,0,0,0-.126-1.276c-.014-.027-.02-.055-.031-.078.061-.1.123-.181.177-.27a1.528,1.528,0,0,0,.1-1.43,2.312,2.312,0,0,0-.368-.6c-.1-.116-.212-.229-.321-.338a.227.227,0,0,1-.075-.14c-.078-.57-.157-1.143-.239-1.713-.014-.089-.024-.177-.034-.27a.368.368,0,0,1,.113-.273c.031.055.055.1.082.14.136.212.266.423.409.631a2.993,2.993,0,0,0,.242.307.155.155,0,0,1,.038.136,1.366,1.366,0,0,0-.027.164,2.08,2.08,0,0,0,.317,1.4,2.879,2.879,0,0,0,.6.669c.089.075.181.143.273.212a1.287,1.287,0,0,1,.5.815,1.838,1.838,0,0,1-.024.747,2.877,2.877,0,0,1-.27.747.6.6,0,0,0-.072.212.446.446,0,0,0,.283.45.436.436,0,0,0,.512-.147.917.917,0,0,0,.1-.171A3.884,3.884,0,0,0,12.746,64a2.336,2.336,0,0,0-.276-1.467.525.525,0,0,1-.027-.065c.01-.01.014-.014.017-.014.02,0,.041-.007.058-.007a4.866,4.866,0,0,1,1.341.386.218.218,0,0,1,.119.143,4.6,4.6,0,0,0,1.112,1.853c.027.027.051.058.082.092-.007.031-.014.061-.02.089a1.515,1.515,0,0,0-.055.447,2.411,2.411,0,0,0,.075.491,4.74,4.74,0,0,0,.546,1.249.381.381,0,0,0,.065.082.44.44,0,0,0,.754-.3.575.575,0,0,0-.078-.27c-.123-.229-.249-.457-.362-.693a3.877,3.877,0,0,1-.15-.392.557.557,0,0,1,0-.085l.143.085a6.152,6.152,0,0,0,1.365.621.7.7,0,0,0,.2.038.443.443,0,0,0,.143-.853Z" transform="translate(-0.009 -37.415)" fill="#fff"/>
        <path id="Path_62" data-name="Path 62" d="M20.981,7.579a.47.47,0,0,0-.324-.1c-.345.017-3.726.212-5.032,2.378a3.819,3.819,0,0,0-.5,2.2,7.44,7.44,0,0,0,.263,1.552.533.533,0,0,0,.092.181,4.839,4.839,0,0,0-1.31.334,4.016,4.016,0,0,0-1.17.986,14.172,14.172,0,0,0-.317-2.337,6.5,6.5,0,0,1,.017-2.419c.01-.072.027-.143.038-.215s.02-.13.038-.2a.305.305,0,0,0,.078.007.459.459,0,0,0,.119-.017c.078-.02.164-.041.263-.061a3.829,3.829,0,0,0,3.286-3.173C17.19,3.7,14.819.527,14.567.2a.494.494,0,0,0-.3-.194.473.473,0,0,0-.478.222A.559.559,0,0,0,13.724.4a11.606,11.606,0,0,1-1.876,2.637,4.689,4.689,0,0,0-1.7,3.395,4.537,4.537,0,0,0,1.709,3.275.29.29,0,0,0,.109.072c-.017.082-.031.16-.041.225s-.027.143-.038.212a7.35,7.35,0,0,0-.017,2.685c0,.01.007.027.007.038a17.006,17.006,0,0,1,.317,4.425c-.068-.113-.143-.222-.222-.331a9.555,9.555,0,0,0-.7-.839c-.1-.109-.194-.212-.287-.324l-.109-.123s-.01-.01-.01-.017l-.007-.007c-.02-.031-.041-.061-.061-.089-.051-.072-.109-.143-.164-.215a4.413,4.413,0,0,0,.089-3.03A4.259,4.259,0,0,0,8.115,9.981,14.12,14.12,0,0,1,5.553,8.51.552.552,0,0,0,5.444,8.4a.456.456,0,0,0-.529,0,.478.478,0,0,0-.191.283c-.092.365-.966,4.012.911,6.09a4.44,4.44,0,0,0,3.344,1.457,4.669,4.669,0,0,0,.536-.031,2.345,2.345,0,0,0,.631-.154c.089.119.174.235.273.351.2.232.413.454.611.689a3.981,3.981,0,0,1,1.03,2.19c-.024.239-.048.44-.068.6.389.038.454-.542.843-.515-.116-.017,0,0-.024.573.078-.59.184-1.621.222-2.815a3.055,3.055,0,0,1,1.122-2.108,1.528,1.528,0,0,1,.525-.287,3.177,3.177,0,0,1,.966-.181.393.393,0,0,0,.164.058,7.827,7.827,0,0,0,1.2.1,3.284,3.284,0,0,0,2.129-.628c.778-.611,1.184-1.631,1.327-3.3a12.574,12.574,0,0,1,.6-2.555.446.446,0,0,0,.068-.133.463.463,0,0,0-.15-.508ZM6.327,14.143A5.277,5.277,0,0,1,5.416,10.2a13.436,13.436,0,0,0,.641,1.491A6.2,6.2,0,0,0,7.8,13.758a13.863,13.863,0,0,1,1.692,1.5,3.586,3.586,0,0,1-3.17-1.116Zm3.606.454c-.287-.3-.6-.587-.911-.853-.4-.341-.832-.621-1.208-.976a4.889,4.889,0,0,1-.839-1.03A9.311,9.311,0,0,1,6.167,10a12.475,12.475,0,0,0,1.614.829,3.392,3.392,0,0,1,2.078,1.883A3.317,3.317,0,0,1,9.93,14.6ZM14.727,2.188a6.585,6.585,0,0,1,.89,4.289,2.915,2.915,0,0,1-2.593,2.474,11.308,11.308,0,0,1,.945-2.228,8.176,8.176,0,0,0,.757-4.538ZM11.073,6.416A3.833,3.833,0,0,1,12.489,3.7a11.046,11.046,0,0,0,1.406-1.76,7.805,7.805,0,0,1-.631,4.377A12.021,12.021,0,0,0,12.223,8.77a3.491,3.491,0,0,1-1.146-2.358Zm5.2,6.9a3.975,3.975,0,0,1,.15-2.975,4.371,4.371,0,0,1,2.787-1.7,8.238,8.238,0,0,0-.863.962,7.833,7.833,0,0,0-1.085,1.846,8.466,8.466,0,0,1-.7,1.528,2.267,2.267,0,0,1-.287.341ZM19.545,10.7a3.687,3.687,0,0,1-.976,2.651,2.531,2.531,0,0,1-1.679.426l.072-.072a4.768,4.768,0,0,0,.771-1.354,9.516,9.516,0,0,1,.843-1.764A8.116,8.116,0,0,1,19.841,9.1,10.926,10.926,0,0,0,19.545,10.7Z" transform="translate(-2.929 -0.002)" fill="#fff"/>
      </g>
    </g>
  </g>
</svg>
