<svg xmlns="http://www.w3.org/2000/svg" width="35" height="17.326" viewBox="0 0 35 17.326">
  <g id="Layer_1-2" transform="translate(0 0)">
    <g id="Group_38569" data-name="Group 38569" transform="translate(0 0)">
      <path id="Path_2657" data-name="Path 2657" d="M52.149.044a1.059,1.059,0,0,1,1.31,1.31,23.433,23.433,0,0,1-5.939,10,23.409,23.409,0,0,1-9.976,5.929,1.059,1.059,0,0,1-1.31-1.31A23.539,23.539,0,0,1,52.149.044Z" transform="translate(-18.502 0)" fill="#ff4053"/>
      <path id="Path_2658" data-name="Path 2658" d="M1.354.044a1.058,1.058,0,0,0-1.31,1.31,23.434,23.434,0,0,0,5.939,10,23.409,23.409,0,0,0,9.976,5.929,1.059,1.059,0,0,0,1.31-1.31,23.433,23.433,0,0,0-5.939-10A23.467,23.467,0,0,0,1.354.044Z" transform="translate(0 0)" fill="#ff4053"/>
    </g>
  </g>
</svg>
