<svg xmlns="http://www.w3.org/2000/svg" width="48.29" height="34.949" viewBox="0 0 48.29 34.949">
  <g id="Layer_1-2" transform="translate(-0.003 0)">
    <g id="Group_38573" data-name="Group 38573" transform="translate(0.002 0)">
      <g id="Group_38571" data-name="Group 38571" transform="translate(6.731 0)">
        <path id="Path_2663" data-name="Path 2663" d="M65.9.044a1.046,1.046,0,0,1,1.294,1.294,23.153,23.153,0,0,1-5.868,9.881,23.129,23.129,0,0,1-9.857,5.858,1.046,1.046,0,0,1-1.294-1.294A23.258,23.258,0,0,1,65.9.044Z" transform="translate(-32.654 0)" fill="#ff4053"/>
        <path id="Path_2664" data-name="Path 2664" d="M15.278.044a1.046,1.046,0,0,0-1.294,1.294,23.154,23.154,0,0,0,5.868,9.881,23.129,23.129,0,0,0,9.857,5.858A1.046,1.046,0,0,0,31,15.782,23.258,23.258,0,0,0,15.278.044Z" transform="translate(-13.941 0)" fill="#ff4053"/>
        <path id="Path_2665" data-name="Path 2665" d="M65.9,54A1.046,1.046,0,0,0,67.192,52.7,23.258,23.258,0,0,0,51.468,36.964a1.046,1.046,0,0,0-1.294,1.294A23.258,23.258,0,0,0,65.9,54Z" transform="translate(-32.654 -19.091)" fill="#ff4053"/>
        <path id="Path_2666" data-name="Path 2666" d="M15.278,54A1.046,1.046,0,0,1,13.984,52.7,23.258,23.258,0,0,1,29.708,36.964,1.046,1.046,0,0,1,31,38.258,23.258,23.258,0,0,1,15.278,54Z" transform="translate(-13.941 -19.091)" fill="#ff4053"/>
      </g>
      <g id="Group_38572" data-name="Group 38572" transform="translate(0 13.604)">
        <path id="Path_2667" data-name="Path 2667" d="M74.481,31a1.046,1.046,0,0,1,0,1.83,23.262,23.262,0,0,1-22.248.014,1.046,1.046,0,0,1,0-1.83A23.262,23.262,0,0,1,74.481,31Z" transform="translate(-26.73 -28.17)" fill="#ff4053"/>
        <path id="Path_2668" data-name="Path 2668" d="M.542,33.35a1.046,1.046,0,0,1,0-1.83,23.262,23.262,0,0,1,22.248-.014,1.046,1.046,0,0,1,0,1.83A23.262,23.262,0,0,1,.542,33.35Z" transform="translate(-0.002 -28.434)" fill="#ff4053"/>
      </g>
    </g>
  </g>
</svg>
