<svg xmlns="http://www.w3.org/2000/svg" width="35" height="35.372" viewBox="0 0 35 35.372">
  <g id="Layer_1-2" transform="translate(0 0)">
    <g id="Group_38570" data-name="Group 38570" transform="translate(0 0)">
      <path id="Path_2659" data-name="Path 2659" d="M52.149.044a1.059,1.059,0,0,1,1.31,1.31,23.434,23.434,0,0,1-5.939,10,23.409,23.409,0,0,1-9.976,5.929,1.059,1.059,0,0,1-1.31-1.31A23.539,23.539,0,0,1,52.149.044Z" transform="translate(-18.502 0)" fill="#ff4053"/>
      <path id="Path_2660" data-name="Path 2660" d="M1.354.044a1.058,1.058,0,0,0-1.31,1.31,23.434,23.434,0,0,0,5.939,10,23.409,23.409,0,0,0,9.976,5.929,1.059,1.059,0,0,0,1.31-1.31,23.434,23.434,0,0,0-5.939-10A23.467,23.467,0,0,0,1.354.044Z" transform="translate(0 0)" fill="#ff4053"/>
      <path id="Path_2661" data-name="Path 2661" d="M52.149,54.2a1.059,1.059,0,0,0,1.31-1.31A23.539,23.539,0,0,0,37.544,36.964a1.059,1.059,0,0,0-1.31,1.31A23.539,23.539,0,0,0,52.149,54.2Z" transform="translate(-18.502 -18.875)" fill="#ff4053"/>
      <path id="Path_2662" data-name="Path 2662" d="M1.354,54.2a1.059,1.059,0,0,1-1.31-1.31A23.539,23.539,0,0,1,15.959,36.964a1.059,1.059,0,0,1,1.31,1.31,23.433,23.433,0,0,1-5.939,10A23.409,23.409,0,0,1,1.354,54.2Z" transform="translate(-0.001 -18.875)" fill="#ff4053"/>
    </g>
  </g>
</svg>
