<svg xmlns="http://www.w3.org/2000/svg" width="41.55" height="41.55" viewBox="0 0 41.55 41.55">
  <g id="Layer_1-2" transform="translate(-0.003 -0.003)">
    <g id="Group_38576" data-name="Group 38576" transform="translate(0.002 0.002)">
      <g id="Group_38574" data-name="Group 38574" transform="translate(5.792 5.737)">
        <path id="Path_2669" data-name="Path 2669" d="M63.7,13.848a.9.9,0,0,1,1.114,1.114A20.012,20.012,0,0,1,51.282,28.5a.9.9,0,0,1-1.114-1.114A20.012,20.012,0,0,1,63.7,13.848Z" transform="translate(-35.093 -13.81)" fill="#ff4053"/>
        <path id="Path_2670" data-name="Path 2670" d="M15.092,13.848a.9.9,0,0,0-1.114,1.114A20.012,20.012,0,0,0,27.507,28.5a.9.9,0,0,0,1.114-1.114A20.012,20.012,0,0,0,15.092,13.848Z" transform="translate(-13.941 -13.81)" fill="#ff4053"/>
        <path id="Path_2671" data-name="Path 2671" d="M63.7,65.433a.9.9,0,0,0,1.114-1.114A20.012,20.012,0,0,0,51.282,50.778a.9.9,0,0,0-1.114,1.114A20.012,20.012,0,0,0,63.7,65.433Z" transform="translate(-35.093 -35.395)" fill="#ff4053"/>
        <path id="Path_2672" data-name="Path 2672" d="M15.092,65.433a.9.9,0,0,1-1.114-1.114A20.012,20.012,0,0,1,27.507,50.778a.9.9,0,0,1,1.114,1.114A20.012,20.012,0,0,1,15.092,65.433Z" transform="translate(-13.941 -35.395)" fill="#ff4053"/>
      </g>
      <g id="Group_38575" data-name="Group 38575" transform="translate(0 0)">
        <path id="Path_2673" data-name="Path 2673" d="M71.3,44.421A.9.9,0,0,1,71.3,46a20.015,20.015,0,0,1-19.143.012.9.9,0,0,1,0-1.575A20.015,20.015,0,0,1,71.3,44.421Z" transform="translate(-30.214 -24.543)" fill="#ff4053"/>
        <path id="Path_2674" data-name="Path 2674" d="M46.508.467a.9.9,0,0,0-1.575,0,20.015,20.015,0,0,0-.012,19.143.9.9,0,0,0,1.575,0A20.015,20.015,0,0,0,46.508.467Z" transform="translate(-24.836 -0.002)" fill="#ff4053"/>
        <path id="Path_2675" data-name="Path 2675" d="M44.421,71.3A.9.9,0,0,0,46,71.3a20.015,20.015,0,0,0,.012-19.143.9.9,0,0,0-1.575,0A20.015,20.015,0,0,0,44.421,71.3Z" transform="translate(-24.543 -30.214)" fill="#ff4053"/>
        <path id="Path_2676" data-name="Path 2676" d="M.467,46.508a.9.9,0,0,1,0-1.575,20.015,20.015,0,0,1,19.143-.012.9.9,0,0,1,0,1.575,20.015,20.015,0,0,1-19.143.012Z" transform="translate(-0.002 -24.836)" fill="#ff4053"/>
      </g>
    </g>
  </g>
</svg>
