<?xml version="1.0" encoding="utf-8"?>
<!-- Generator: Adobe Illustrator 25.0.0, SVG Export Plug-In . SVG Version: 6.00 Build 0)  -->
<svg version="1.1" id="Layer_1" xmlns="http://www.w3.org/2000/svg" xmlns:xlink="http://www.w3.org/1999/xlink" x="0px" y="0px"
	 viewBox="0 0 200 200" style="enable-background:new 0 0 200 200;" xml:space="preserve">
<style type="text/css">
	.st0{fill:#1C5C2E;}
</style>
<path class="st0" d="M179.8,100.1c-0.2-34.4-25.6-64-59.7-68.9c-20.8-3-38.4,3-50.9,20.5c-21.7,30.6-2.3,73.3,34.9,77.8
	c17,2.1,28.7-7.3,33.2-18c8.1-19.3-6-41.1-26.8-41.3c-5.9-0.1-10.4,3.9-10.6,9.4c-0.2,5.7,3.8,10,9.9,10.5c5.5,0.5,8.9,3.4,9.8,8.3
	c1,5.9-3.3,11.2-9.3,11.5c-14.6,0.7-28.4-11.2-30-25.8c-2.1-19.9,13.1-35.4,33.1-33.7C137.1,52.6,155,69,159,92.2
	c4.9,27.9-16.4,55.3-44.6,57.3c-37.2,2.7-70.3-25.4-73.7-62.6c-3.5-37.6,23-71.3,60.3-75.6c26.5-3.1,50.1,5,69.5,23.1
	c23.1,21.6,32.1,48.5,27.7,79.7c-5.2,36.9-35.9,68.4-72.8,73.9c-36.4,5.5-67.7-5.7-93.6-31.5C14.3,139.1,4.4,117.7,1.3,93.2
	c-0.5-4.3-0.7-8.7-0.7-13c0-5.5,4.3-9.8,9.6-9.9c5.5-0.1,10,4,10.1,9.7c0.3,16.2,3.9,31.6,12.5,45.5c19,30.6,46.8,45.6,82.8,43.9
	c30.8-1.5,57.5-26.1,62.7-56.7C179,108.5,179.3,104.3,179.8,100.1z"/>
</svg>
