<?xml version="1.0" encoding="utf-8"?>
<!-- Generator: Adobe Illustrator 25.0.0, SVG Export Plug-In . SVG Version: 6.00 Build 0)  -->
<svg version="1.1" id="Layer_1" xmlns="http://www.w3.org/2000/svg" xmlns:xlink="http://www.w3.org/1999/xlink" x="0px" y="0px"
	 viewBox="0 0 1419.8 330" style="enable-background:new 0 0 1419.8 330;" xml:space="preserve">
<style type="text/css">
	.st0{fill:#D10F96;}
	.st1{fill:#FF5459;}
	.st2{fill:#1B5B2F;}
	.st3{fill:#80B53B;}
</style>
<g>
	<g>
		<path id="Path_71" class="st0" d="M160,79.4c8.1-0.1,6.6-5.2,4.8-10.2c-8.5-24.2-23.6-43.4-45.6-56.5C111.8,8.4,103.9,5,95.8,2.3
			c-5.6-1.9-9.4,0.6-7.2,7.3c11.3,34.3,34.3,57,68.2,69.2C157.8,79.1,158.9,79.3,160,79.4z"/>
		<path id="Path_72" class="st1" d="M246,7.2c-1.5-4-6-6-10.1-4.5c-0.2,0.1-0.4,0.2-0.6,0.3c-7.8,3.7-14.3,6.6-20.4,10.3
			c-21.7,13.2-36.5,32.1-44.6,56.1c-0.9,2.5-1.4,6.6-0.1,8c1.4,1.6,5.7,1.9,8,1.1c34-11.9,57-34.9,68-69.2
			C246.4,8.7,246.3,7.9,246,7.2z"/>
		<path id="Path_73" class="st1" d="M255.4,167.1c2,0.6,4.3,1.2,6.5,2c31,11.8,52.4,33.3,64.1,64.4c1.2,3.1,0.6,6.8,0.8,10.3
			c-3.7-0.1-7.7,0.8-11-0.5c-31.5-11.7-53-33.5-64.5-65.1C248.4,170.4,249.8,167,255.4,167.1z"/>
		<path id="Path_74" class="st1" d="M91.3,166.3c3.2,1,3.8,1.2,4.5,1.3c28,5.6,65,42.5,70,69.7c1.1,6.1-1,8.8-7.5,7.5
			c-27.5-5.4-64.2-42-69.6-70C88.3,172.3,90.4,169.2,91.3,166.3z"/>
		<path id="Path_75" class="st1" d="M166.3,90.6c-0.8,2.5-1.4,5-2.4,7.5c-12,30.5-33.3,51.6-64,63c-3.1,1.1-6.8,0.6-10.2,0.8
			c0-3.4-1-7.1,0.1-10c11.7-31.8,33.5-53.6,65.4-65.4C159.6,84.8,165,82.4,166.3,90.6z"/>
		<path id="Path_76" class="st1" d="M177.6,85.3c4.5,2,10.4,4.2,16,7.1c25.4,13.3,42.9,33.5,52.2,60.6c0.9,2.5,1.5,6.5,0.2,8.1
			c-1.3,1.5-5.6,1.8-7.9,1c-34.1-11.7-56.8-34.8-68.5-68.8C167.2,86.7,170.1,84.7,177.6,85.3z"/>
		<path id="Path_77" class="st1" d="M259.4,161.9c-3.5,1.2-7.4-0.7-8.6-4.2c-0.1-0.3-0.2-0.5-0.2-0.8c-0.2-0.8-0.2-1.7,0.1-2.6
			c4.4-10.2,8.9-20.6,15.1-29.7c12.8-18.7,30.7-31.4,52.3-38.6c2.5-0.8,6.6-1,8.1,0.5c1.4,1.4,1.3,5.6,0.5,8
			C315,127.7,292.5,150.1,259.4,161.9L259.4,161.9z"/>
		<path id="Path_78" class="st1" d="M86.1,174.8c-4.6,9-8.6,18.5-14.1,27C59.1,222,41,235.8,18.4,243.6c-2.8,1-6.2,0.4-9.4,0.6
			c-0.1-3.1-1.3-6.6-0.3-9.3c11.8-32.7,34-55.2,67-66.5C83.2,165.8,85.6,167.6,86.1,174.8z"/>
		<path id="Path_79" class="st1" d="M160,249.3c8.1,0.1,6.6,5.2,4.8,10.2c-8.5,24.2-23.6,43.4-45.6,56.5
			c-7.4,4.3-15.3,7.8-23.4,10.4c-5.6,1.9-9.4-0.6-7.2-7.3c11.3-34.3,34.3-57,68.2-69.1C157.8,249.7,158.9,249.5,160,249.3z"/>
		<path id="Path_80" class="st1" d="M246,321.5c-1.5,4-6,6-10.1,4.5c-0.2-0.1-0.4-0.2-0.6-0.3c-7.8-3.7-14.3-6.6-20.4-10.3
			c-21.7-13.2-36.5-32.1-44.6-56.1c-0.9-2.5-1.4-6.6-0.1-8c1.4-1.6,5.7-1.9,8-1.1c34,11.9,57,34.9,68,69.2
			C246.4,320.1,246.3,320.8,246,321.5z"/>
		<path id="Path_81" class="st1" d="M85.2,157.5c-0.4,7.6-5.4,5.8-9.8,4.3c-19.6-6.6-36.4-17.6-48.6-34.2
			c-7.5-10.2-13.1-22-18.3-33.6c-3.2-7,0.5-10.7,7.6-8.3c34,11.6,57,34.5,68.6,68.6C84.9,155.4,85.1,156.4,85.2,157.5z"/>
		<path id="Path_82" class="st0" d="M241.6,167.3c6.4,0.5,5.9,4.4,4.2,9.5c-9.2,26.7-26.4,46.8-51.2,60.2
			c-5.8,3.1-11.9,5.6-18.2,7.5c-5.1,1.6-8.3-0.4-7.1-6.7c5.2-27.5,41.9-64.3,69.8-69.9C239.7,167.9,240.3,167.7,241.6,167.3z"/>
	</g>
	<g>
		<g>
			<path class="st2" d="M385.3,53.3c-1-2.2,0.3-4.3,2.8-4.3H405c1.5,0,2.5,1,2.8,1.8l31.8,71.2h1.2l31.8-71.2
				c0.3-0.8,1.3-1.8,2.8-1.8h16.9c2.5,0,3.8,2.2,2.8,4.3l-51.3,111.4c-0.5,1-1.3,1.8-2.8,1.8h-1.7c-1.5,0-2.3-0.8-2.8-1.8
				L385.3,53.3z"/>
			<path class="st2" d="M510.1,52.1c0-1.7,1.5-3.1,3.1-3.1h15.4c1.7,0,3.1,1.5,3.1,3.1v109.5c0,1.7-1.5,3.1-3.1,3.1h-15.4
				c-1.7,0-3.1-1.5-3.1-3.1V52.1z"/>
			<path class="st2" d="M561.9,52.1c0-1.7,1.3-3.1,3.1-3.1H603c19.7,0,34.9,13.2,34.9,30.6c0,12.7-10.4,22.7-18.2,26.3
				c8.8,2.8,21.5,11.7,21.5,27c0,18.5-15.9,31.9-36.1,31.9h-40c-1.8,0-3.1-1.5-3.1-3.1V52.1z M601,97.6c8.4,0,14.2-6.6,14.2-14.9
				c0-8.3-5.8-14.1-14.2-14.1h-17.7v29H601z M603.3,145.3c8.3,0,14.9-6.5,14.9-15.1c0-8.3-8.3-14.4-16.9-14.4h-18v29.5H603.3z"/>
			<path class="st2" d="M664,52.1c0-1.7,1.3-3.1,3.1-3.1h67.4c1.8,0,3.1,1.5,3.1,3.1v13.6c0,1.7-1.3,3.1-3.1,3.1h-49V96h40.9
				c1.7,0,3.1,1.5,3.1,3.1v13.7c0,1.8-1.5,3.1-3.1,3.1h-40.9v29h49c1.8,0,3.1,1.5,3.1,3.1v13.6c0,1.7-1.3,3.1-3.1,3.1h-67.4
				c-1.8,0-3.1-1.5-3.1-3.1V52.1z"/>
			<path class="st2" d="M813.5,47.3c15.9,0,29,5.8,40.2,15.4c1.3,1.3,1.5,3.3,0.2,4.6c-2.5,2.6-5,5.1-7.4,7.8
				c-1.3,1.5-2.6,1.3-4.3-0.2c-7.8-6.8-18-11.3-28.1-11.3c-23.5,0-41.5,19.9-41.5,43c0,23,18,42.9,41.5,42.9c13.7,0,23.2-5,24.8-5.6
				v-18.5h-16.2c-1.8,0-3.1-1.3-3.1-3v-9.6c0-1.8,1.3-3.1,3.1-3.1h30.1c1.7,0,3,1.5,3,3.1c0,13.2,0.2,26.8,0.2,40
				c0,0.8-0.7,2.2-1.3,2.6c0,0-17,10.9-41,10.9c-32.9,0-59.6-26.3-59.6-59.4C753.9,74,780.5,47.3,813.5,47.3z"/>
			<path class="st2" d="M866.2,160.5L917,49.2c0.5-1,2-1.8,2.8-1.8h1.7c0.8,0,2.3,0.8,2.8,1.8l50.5,111.4c1,2.2-0.3,4.3-2.8,4.3
				h-10.4c-2,0-3.1-1-3.8-2.5l-10.3-22.7h-54.1c-3.3,7.6-6.8,15.1-10.1,22.7c-0.5,1.2-1.8,2.5-3.8,2.5h-10.4
				C866.6,164.8,865.2,162.7,866.2,160.5z M941.2,125.4l-20.4-45.3H920l-20.2,45.3H941.2z"/>
			<path class="st2" d="M991.3,52.1c0-1.7,1.3-3.1,3.1-3.1h45c19.9,0,36.1,15.7,36.1,35.4c0,15.2-10.1,27.8-24.5,33.6l22.7,42
				c1.2,2.2,0,4.8-2.8,4.8H1058c-1.3,0-2.3-0.8-2.6-1.5l-22-43.9h-25v42.2c0,1.7-1.5,3.1-3.1,3.1h-10.8c-1.8,0-3.1-1.5-3.1-3.1V52.1
				z M1038.2,105.3c10.8,0,20.2-9.1,20.2-20.5c0-10.8-9.4-19.7-20.2-19.7h-29.5v40.2H1038.2z"/>
			<path class="st2" d="M1101.4,52.1c0-1.7,1.3-3.1,3-3.1h38.1c31.9,0,58.1,26,58.1,57.8c0,32.1-26.1,58.1-58.1,58.1h-38.1
				c-1.7,0-3-1.5-3-3.1V52.1z M1140.1,149.1c24.3,0,42-17.9,42-42.4c0-24.3-17.7-42-42-42h-21.8v84.4H1140.1z"/>
			<path class="st2" d="M1224.4,52.1c0-1.7,1.3-3.1,3.1-3.1h66.2c1.8,0,3.1,1.5,3.1,3.1v9.3c0,1.7-1.3,3.1-3.1,3.1h-52.3v33.8h44.2
				c1.7,0,3.1,1.5,3.1,3.1v9.3c0,1.8-1.5,3.1-3.1,3.1h-44.2v35.6h52.3c1.8,0,3.1,1.5,3.1,3.1v9.1c0,1.7-1.3,3.1-3.1,3.1h-66.2
				c-1.8,0-3.1-1.5-3.1-3.1V52.1z"/>
			<path class="st2" d="M1321.8,50.3c0-1.7,1.5-3,3.1-3h4.1l71.8,83.1h0.2V52.1c0-1.7,1.3-3.1,3.1-3.1h10.6c1.7,0,3.1,1.5,3.1,3.1
				v111.4c0,1.7-1.5,3-3.1,3h-4.3l-71.8-85.4h-0.2v80.6c0,1.7-1.3,3.1-3.1,3.1H1325c-1.7,0-3.1-1.5-3.1-3.1V50.3z"/>
		</g>
		<g>
			<path class="st3" d="M388,281.3c-2-0.9-3-2.2-3-3.8c0-2.1,1-3.5,3-4.1c0.6,0.7,1.6,1.2,2.9,1.6c1.3,0.4,2.6,0.6,3.9,0.6
				c2.2,0,4.1-0.7,5.7-2.2s3.1-3.9,4.6-7.3l2.3-4.9l-16-36.3H386c-0.4-0.9-0.6-1.7-0.6-2.4c0-2.4,0.9-3.6,2.7-3.6h19.1
				c0.4,0.9,0.6,1.7,0.6,2.4c0,2.4-0.9,3.6-2.7,3.6h-4.8l11.6,27.9l11.5-27.9H417c-0.4-0.9-0.6-1.7-0.6-2.4c0-2.4,0.9-3.6,2.7-3.6
				h17.3c0.4,0.9,0.6,1.7,0.6,2.4c0,2.4-0.9,3.6-2.7,3.6h-3.5l-18.6,42.1c-2.4,5.4-4.9,9.3-7.5,11.9c-2.6,2.6-6,3.8-10,3.8
				C392.2,282.7,390,282.2,388,281.3z"/>
			<path class="st3" d="M445.1,223.8c4.2-4.2,9.7-6.3,16.5-6.3c6.6,0,11.9,2,15.8,6c3.9,4,5.8,9.5,5.8,16.3c0,6.7-2.1,12.2-6.4,16.4
				c-4.2,4.2-9.7,6.3-16.5,6.3c-6.6,0-11.9-2-15.8-6.1s-5.8-9.5-5.8-16.3C438.8,233.5,440.9,228,445.1,223.8z M470.9,228.2
				c-2.4-2.8-5.7-4.2-9.9-4.2c-4,0-7.2,1.4-9.7,4.3c-2.5,2.9-3.7,6.8-3.7,11.8c0,5,1.2,8.9,3.6,11.7s5.7,4.2,9.9,4.2
				c4.1,0,7.3-1.5,9.7-4.4s3.6-6.9,3.6-11.8C474.4,234.9,473.2,231,470.9,228.2z"/>
			<path class="st3" d="M518.2,260.6c-2.6,1.3-5.3,2-8.2,2c-9.9,0-14.8-5.6-14.8-16.9V225h-5.9c-0.4-1.1-0.6-2-0.6-2.6
				c0-1.4,0.6-2.4,1.7-3c1.1-0.6,3.1-0.9,5.9-0.9c1.6,0,2.8,0.1,3.8,0.3c1,0.2,1.9,0.5,2.9,0.9c0.2,0.6,0.4,1.3,0.5,2.1
				c0.1,0.7,0.1,1.6,0.1,2.6v20.5c0,7.3,3,10.9,9.1,10.9c2.1,0,4.1-0.5,6.3-1.6s3.7-2.4,4.9-4.1V225H518c-0.4-1.1-0.6-2-0.6-2.6
				c0-1.4,0.6-2.4,1.7-3c1.1-0.6,3.1-0.9,5.9-0.9c2.6,0,4.9,0.4,6.7,1.2c0.2,0.6,0.4,1.3,0.5,2.1c0.1,0.7,0.1,1.6,0.1,2.6v30.9h6.4
				c0.4,0.9,0.6,1.7,0.6,2.4c0,1.6-0.5,2.6-1.6,3.2c-1.1,0.6-2.9,0.9-5.5,0.9c-3.1,0-5.6-0.4-7.4-1.2c-0.4-1-0.6-2.6-0.6-4.9
				C522.8,257.6,520.8,259.3,518.2,260.6z"/>
			<path class="st3" d="M547.4,268.6c1.3-1.8,2-3.7,2-5.8c0-2.6-1.4-5.2-4.3-7.7c0.1-1.2,0.7-2.2,1.6-3c0.9-0.8,2-1.2,3.1-1.2
				c2.1,0,4,1.1,5.5,3.2s2.3,4.5,2.3,7.1c0,4.9-2.3,9.1-6.8,12.6c-2.1,1.7-4.1,2.5-6.1,2.5c-2.1,0-3.2-1.1-3.2-3.4
				C544.1,271.8,546.1,270.4,547.4,268.6z"/>
			<path class="st3" d="M583.5,261.3c-0.4-0.9-0.6-1.8-0.6-2.5c0-2.5,0.9-3.7,2.7-3.7h4.4V225h-6.6c-0.4-1.1-0.6-2-0.6-2.6
				c0-1.5,0.6-2.5,1.8-3.1c1.2-0.6,3.2-0.8,6.2-0.8c2.9,0,5.2,0.4,7.1,1.2c0.4,1,0.6,2.6,0.6,4.7v30.8h6.4c0.4,0.9,0.6,1.8,0.6,2.5
				c0,2.5-0.9,3.7-2.7,3.7H583.5z M597,206.3c-1.1,1-2.4,1.5-4.1,1.5c-1.6,0-2.9-0.5-4-1.5c-1.1-1-1.6-2.3-1.6-3.8
				c0-1.6,0.5-2.9,1.6-4c1.1-1,2.4-1.5,4-1.5c1.6,0,3,0.5,4.1,1.5c1.1,1,1.6,2.4,1.6,4C598.6,204,598.1,205.3,597,206.3z"/>
			<path class="st3" d="M610.9,261.3c-0.4-0.9-0.6-1.8-0.6-2.5c0-2.5,0.9-3.7,2.8-3.7h3.9V225h-6.2c-0.4-1.1-0.6-2-0.6-2.6
				c0-1.4,0.6-2.4,1.7-3c1.2-0.6,3.1-0.9,5.8-0.9c2.7,0,5,0.4,6.6,1.2c0.4,1.1,0.6,2.7,0.6,5c1.4-2.1,3.5-3.8,6.2-5.1
				c2.7-1.3,5.5-2,8.5-2c9.9,0,14.9,5.6,14.9,16.8v20.7h6c0.4,0.9,0.6,1.8,0.6,2.5c0,2.5-0.9,3.7-2.8,3.7H640
				c-0.4-0.9-0.6-1.8-0.6-2.5c0-2.5,0.9-3.7,2.8-3.7h3.8v-19.8c0-7.2-3.1-10.8-9.3-10.8c-4.7,0-8.5,1.7-11.4,5v25.6h6.1
				c0.4,0.9,0.6,1.8,0.6,2.5c0,2.5-0.9,3.7-2.8,3.7H610.9z"/>
			<path class="st3" d="M685.2,261.3c-0.4-0.9-0.6-1.8-0.6-2.5c0-2.5,0.9-3.7,2.8-3.7h3.9v-29.8h-6.5c-0.4-0.9-0.6-1.8-0.6-2.6
				c0-2.6,0.9-3.8,2.8-3.8h4.3v-6.6c0-5.6,1.6-10,4.8-13.3c3.2-3.2,7.7-4.9,13.5-4.9c3.6,0,6.6,0.7,9,2s3.6,2.7,3.6,4.2
				c0,2-1.1,3.4-3.3,4.1c-2.1-2.4-5.1-3.6-9.1-3.6c-3.2,0-5.6,1-7.4,2.9s-2.6,4.6-2.6,8.1v7.1h14.7c0.4,0.9,0.6,1.8,0.6,2.6
				c0,2.6-0.9,3.8-2.8,3.8h-12.4v29.8h9.2c0.4,0.9,0.6,1.8,0.6,2.5c0,2.5-0.9,3.7-2.8,3.7H685.2z"/>
			<path class="st3" d="M746.3,260.6c-2.6,1.3-5.3,2-8.2,2c-9.9,0-14.8-5.6-14.8-16.9V225h-5.9c-0.4-1.1-0.6-2-0.6-2.6
				c0-1.4,0.6-2.4,1.7-3c1.1-0.6,3.1-0.9,5.9-0.9c1.6,0,2.8,0.1,3.8,0.3c1,0.2,1.9,0.5,2.9,0.9c0.2,0.6,0.4,1.3,0.5,2.1
				c0.1,0.7,0.1,1.6,0.1,2.6v20.5c0,7.3,3,10.9,9.1,10.9c2.1,0,4.1-0.5,6.3-1.6s3.7-2.4,4.9-4.1V225h-5.9c-0.4-1.1-0.6-2-0.6-2.6
				c0-1.4,0.6-2.4,1.7-3c1.1-0.6,3.1-0.9,5.9-0.9c2.6,0,4.9,0.4,6.7,1.2c0.2,0.6,0.4,1.3,0.5,2.1c0.1,0.7,0.1,1.6,0.1,2.6v30.9h6.4
				c0.4,0.9,0.6,1.7,0.6,2.4c0,1.6-0.5,2.6-1.6,3.2c-1.1,0.6-2.9,0.9-5.5,0.9c-3.1,0-5.6-0.4-7.4-1.2c-0.4-1-0.6-2.6-0.6-4.9
				C750.9,257.6,748.9,259.3,746.3,260.6z"/>
			<path class="st3" d="M771.5,261.3c-0.4-0.9-0.6-1.8-0.6-2.5c0-2.5,0.9-3.7,2.8-3.7h4.4v-54.5h-6.7c-0.4-1.1-0.6-2-0.6-2.6
				c0-1.5,0.6-2.5,1.8-3.1c1.2-0.6,3.3-0.8,6.2-0.8c1.6,0,2.9,0.1,4,0.3c1.1,0.2,2.1,0.5,3.1,0.9c0.4,1,0.6,2.6,0.6,4.7v55.2h6.4
				c0.4,0.9,0.6,1.8,0.6,2.5c0,2.5-0.9,3.7-2.8,3.7H771.5z"/>
			<path class="st3" d="M797.5,261.3c-0.4-0.9-0.6-1.8-0.6-2.5c0-2.5,0.9-3.7,2.8-3.7h4.4v-54.5h-6.7c-0.4-1.1-0.6-2-0.6-2.6
				c0-1.5,0.6-2.5,1.8-3.1c1.2-0.6,3.3-0.8,6.2-0.8c1.6,0,2.9,0.1,4,0.3c1.1,0.2,2.1,0.5,3.1,0.9c0.4,1,0.6,2.6,0.6,4.7v55.2h6.4
				c0.4,0.9,0.6,1.8,0.6,2.5c0,2.5-0.9,3.7-2.8,3.7H797.5z"/>
			<path class="st3" d="M853.7,261.5c-0.6,0.7-1.9,1-3.8,1c-1.4,0-2.5-0.2-3.4-0.7v-61.4h-6.7c-0.2-0.6-0.3-1.1-0.4-1.5
				s-0.1-0.8-0.1-1.1c0-1.5,0.6-2.5,1.8-3.1c1.2-0.6,3.3-0.8,6.2-0.8c1.6,0,2.9,0.1,4,0.3c1.1,0.2,2.1,0.5,3.1,0.9
				c0.4,1,0.6,2.6,0.6,4.7v24c1.6-2,3.6-3.6,6.2-4.7c2.6-1.1,5.4-1.7,8.5-1.7c5.7,0,10.1,2,13.2,6.1c3.1,4.1,4.6,9.3,4.6,15.7
				c0,7-1.8,12.7-5.3,16.9c-3.5,4.2-8.3,6.3-14.3,6.3c-2.7,0-5.3-0.4-7.5-1.2s-4.1-1.9-5.6-3.4C854.7,259.7,854.3,260.8,853.7,261.5
				z M865.5,255.9c4.2,0,7.5-1.4,9.8-4.2c2.3-2.8,3.4-6.8,3.4-12c0-5-1-8.8-3.1-11.5s-5.1-4-9-4c-2.2,0-4.4,0.5-6.5,1.5
				c-2.2,1-3.9,2.2-5,3.7v23C857.6,254.8,861.2,255.9,865.5,255.9z"/>
			<path class="st3" d="M893.5,261.3c-0.4-0.9-0.6-1.8-0.6-2.5c0-2.5,0.9-3.7,2.8-3.7h4.4v-54.5h-6.7c-0.4-1.1-0.6-2-0.6-2.6
				c0-1.5,0.6-2.5,1.8-3.1c1.2-0.6,3.3-0.8,6.2-0.8c1.6,0,2.9,0.1,4,0.3c1.1,0.2,2.1,0.5,3.1,0.9c0.4,1,0.6,2.6,0.6,4.7v55.2h6.4
				c0.4,0.9,0.6,1.8,0.6,2.5c0,2.5-0.9,3.7-2.8,3.7H893.5z"/>
			<path class="st3" d="M927.5,223.8c4.2-4.2,9.7-6.3,16.5-6.3c6.6,0,11.9,2,15.8,6c3.9,4,5.8,9.5,5.8,16.3c0,6.7-2.1,12.2-6.4,16.4
				c-4.2,4.2-9.7,6.3-16.5,6.3c-6.6,0-11.9-2-15.8-6.1c-3.9-4.1-5.8-9.5-5.8-16.3C921.2,233.5,923.3,228,927.5,223.8z M953.3,228.2
				c-2.4-2.8-5.7-4.2-9.9-4.2c-4,0-7.2,1.4-9.7,4.3c-2.5,2.9-3.7,6.8-3.7,11.8c0,5,1.2,8.9,3.6,11.7s5.7,4.2,9.9,4.2
				c4.1,0,7.3-1.5,9.7-4.4s3.6-6.9,3.6-11.8C956.8,234.9,955.6,231,953.3,228.2z"/>
			<path class="st3" d="M979.6,223.8c4.2-4.2,9.7-6.3,16.5-6.3c6.6,0,11.9,2,15.8,6c3.9,4,5.8,9.5,5.8,16.3c0,6.7-2.1,12.2-6.4,16.4
				c-4.2,4.2-9.7,6.3-16.5,6.3c-6.6,0-11.9-2-15.8-6.1s-5.8-9.5-5.8-16.3C973.3,233.5,975.4,228,979.6,223.8z M1005.4,228.2
				c-2.4-2.8-5.7-4.2-9.9-4.2c-4,0-7.2,1.4-9.7,4.3c-2.5,2.9-3.7,6.8-3.7,11.8c0,5,1.2,8.9,3.6,11.7s5.7,4.2,9.9,4.2
				c4.1,0,7.3-1.5,9.7-4.4s3.6-6.9,3.6-11.8C1008.9,234.9,1007.7,231,1005.4,228.2z"/>
			<path class="st3" d="M1025,261.3c-0.4-0.9-0.6-1.8-0.6-2.5c0-2.5,0.9-3.7,2.8-3.7h3.9V225h-6.2c-0.4-1.1-0.6-2-0.6-2.6
				c0-1.4,0.6-2.4,1.7-3c1.2-0.6,3.1-0.9,5.8-0.9c2.7,0,5,0.4,6.6,1.2c0.4,1.3,0.6,3,0.6,5c1.2-2,3.1-3.7,5.6-5c2.5-1.3,5.2-2,8-2
				c6.2,0,10.4,2.6,12.4,7.7c1.4-2.3,3.5-4.2,6.3-5.6c2.7-1.4,5.5-2.1,8.4-2.1c9.3,0,13.9,5.5,13.9,16.5v21h6
				c0.4,0.9,0.6,1.8,0.6,2.5c0,2.5-0.9,3.7-2.8,3.7h-18.2c-0.4-0.9-0.6-1.8-0.6-2.5c0-2.5,0.9-3.7,2.8-3.7h3.8v-20.3
				c0-3.5-0.6-6.1-1.9-7.8c-1.2-1.7-3.4-2.6-6.5-2.6c-2.1,0-4.1,0.5-6,1.5c-1.9,1-3.5,2.2-4.7,3.7c0.1,0.6,0.2,1.3,0.3,2.1
				s0.1,1.5,0.1,2.3v21h5.8c0.4,0.9,0.6,1.8,0.6,2.5c0,2.5-0.9,3.7-2.8,3.7h-18c-0.4-0.9-0.6-1.8-0.6-2.5c0-2.5,0.9-3.7,2.8-3.7h3.7
				v-20.3c0-3.6-0.7-6.3-2-7.9s-3.4-2.5-6.4-2.5c-1.9,0-3.9,0.5-5.8,1.4s-3.4,2.2-4.6,3.6v25.6h6c0.4,0.9,0.6,1.8,0.6,2.5
				c0,2.5-0.9,3.7-2.8,3.7H1025z"/>
		</g>
	</g>
</g>
</svg>
